<?xml version="1.0" encoding="utf-8"?>
<!-- Generator: Adobe Illustrator 27.5.0, SVG Export Plug-In . SVG Version: 6.00 Build 0)  -->
<svg version="1.1" xmlns="http://www.w3.org/2000/svg" xmlns:xlink="http://www.w3.org/1999/xlink" x="0px" y="0px"
	 viewBox="0 0 500 500" style="enable-background:new 0 0 500 500;" xml:space="preserve">
<g id="BACKGROUND">
	<rect style="fill:#FFFFFF;" width="500" height="500"/>
</g>
<g id="OBJECT">
	<g>
		<ellipse style="fill:#FFF1E2;" cx="259.286" cy="461.411" rx="235.714" ry="13.018"/>
		<path style="fill:#FFF1E2;" d="M194.143,110.256c71.134-12.658,128.046,10.621,150.166,41.882
			c22.12,31.261,59.834,11.261,91.263,52.404c31.429,41.143,32.47,142.682-116.267,150.048
			c-148.737,7.365-224.209-14.09-239.971-59.212C63.571,250.256,72.817,131.845,194.143,110.256z"/>
		<g>
			
				<path style="fill:none;stroke:#FF9A8D;stroke-linecap:round;stroke-linejoin:round;stroke-miterlimit:10;stroke-dasharray:5;" d="
				M172.714,137.732c0,0,22.643,57.938,115.893,66.603s125.069-22.2,157.588-13.196"/>
			<g>
				<polygon style="fill:#FF9A8D;" points="147.003,139.603 161.773,118.445 182.332,112.257 122.052,89.103 				"/>
				<polygon style="fill:#D66F67;" points="122.052,89.103 159.915,121.106 164.169,131.32 166.03,117.164 				"/>
				<polygon style="fill:#EF857D;" points="155.722,127.114 164.169,131.32 159.915,121.106 				"/>
			</g>
		</g>
		<g>
			
				<ellipse transform="matrix(0.9269 -0.3753 0.3753 0.9269 -57.4706 48.8205)" style="fill:none;stroke:#FF9A8D;stroke-linecap:round;stroke-linejoin:round;stroke-dasharray:5.0842,5.0842;" cx="96.606" cy="171.96" rx="32.375" ry="32.375"/>
		</g>
		
			<ellipse transform="matrix(0.9255 -0.3787 0.3787 0.9255 -65.0871 189.2726)" style="fill:none;stroke:#FF9A8D;stroke-linecap:round;stroke-linejoin:round;stroke-miterlimit:10;stroke-dasharray:5;" cx="448.643" cy="260.107" rx="17.214" ry="17.214"/>
		<g>
			<circle style="fill:#8CD3E8;" cx="226.69" cy="71.639" r="16.467"/>
			<g>
				<path style="fill:#FFFFFF;" d="M232.071,78.137c-0.836,0.898-1.989,1.486-3.456,1.763v2.448h-3.665v-2.371
					c-2.073-0.247-3.706-0.862-4.896-1.848l1.108-2.494c0.288,0.267,0.693,0.546,1.216,0.839c0.524,0.293,1.124,0.539,1.802,0.739
					c0.677,0.2,1.365,0.3,2.063,0.3c0.852,0,1.573-0.192,2.163-0.578c0.59-0.385,0.886-0.993,0.886-1.824
					c0-0.462-0.172-0.852-0.516-1.17c-0.344-0.318-0.762-0.577-1.255-0.777s-1.134-0.413-1.924-0.639
					c-1.068-0.308-1.992-0.677-2.771-1.108c-0.78-0.431-1.417-1.014-1.909-1.748c-0.493-0.734-0.739-1.65-0.739-2.748
					c0-0.821,0.188-1.573,0.562-2.255c0.375-0.683,0.918-1.26,1.632-1.732c0.713-0.472,1.573-0.795,2.579-0.97v-2.987h3.665v3.002
					c0.872,0.165,1.634,0.416,2.287,0.754c0.651,0.339,1.111,0.678,1.378,1.017l-1.232,2.371c-0.123-0.164-0.39-0.378-0.8-0.639
					c-0.411-0.262-0.896-0.493-1.455-0.693c-0.56-0.2-1.122-0.3-1.686-0.3c-0.873,0-1.604,0.19-2.194,0.57
					c-0.591,0.38-0.886,0.929-0.886,1.647c0,0.77,0.333,1.357,1.001,1.763c0.667,0.406,1.503,0.721,2.51,0.947
					c1.714,0.4,3.107,1.057,4.18,1.971c1.072,0.914,1.609,2.053,1.609,3.418C233.326,76.128,232.908,77.239,232.071,78.137z"/>
			</g>
		</g>
		<g>
			<path style="fill:#D86A7D;" d="M134.679,284.357h-8.786c-2.545,0-4.607-2.063-4.607-4.607v-8.464h18v8.464
				C139.286,282.294,137.223,284.357,134.679,284.357z"/>
			<path style="fill:#8CD3E8;" d="M155.86,242.29c0,6.73-2.61,12.85-6.86,17.42c-1.07,1.15-2.24,2.19-3.5,3.13
				c-0.01,6.32-5.14,11.45-11.46,11.45h-7.93c-6.33,0-11.47-5.14-11.47-11.47v-0.31c-1.1-0.85-2.12-1.78-3.07-2.8
				c-4.25-4.56-6.86-10.69-6.86-17.42c0-14.13,11.45-25.58,25.58-25.58C144.41,216.71,155.86,228.16,155.86,242.29z"/>
			<path style="fill:#71BBCC;" d="M149,259.71c-1.07,1.15-2.24,2.19-3.5,3.13c-0.01,6.32-5.14,11.45-11.46,11.45h-7.93
				c-6.33,0-11.47-5.14-11.47-11.47v-0.31c-1.1-0.85-2.12-1.78-3.07-2.8c2.28-8.19,9.8-14.21,18.72-14.21
				C139.21,245.5,146.72,251.52,149,259.71z"/>
			<path style="fill:#FFFFFF;" d="M140.576,241.556h-1.425c0,4.648-3.598,8.465-8.153,8.829v-8.83c0-0.394-0.319-0.712-0.712-0.712
				c-0.394,0-0.712,0.319-0.712,0.712v8.83c-4.556-0.365-8.153-4.182-8.153-8.829h-1.425c0,5.434,4.236,9.886,9.578,10.254v21.036
				c0,0.394,0.319,0.712,0.712,0.712c0.394,0,0.712-0.319,0.712-0.712V251.81C136.339,251.442,140.576,246.99,140.576,241.556z"/>
			<path style="fill:none;stroke:#FFFFFF;stroke-width:3;stroke-linecap:round;stroke-linejoin:round;stroke-miterlimit:10;" d="
				M134.55,220.805c0,0,8.592,1.195,13.393,9.857"/>
			
				<line style="fill:none;stroke:#FFFFFF;stroke-width:3;stroke-linecap:round;stroke-linejoin:round;stroke-miterlimit:10;" x1="149.759" y1="234.773" x2="150.241" y2="235.952"/>
		</g>
		<g>
			<path style="fill:#FF9A8D;" d="M446.195,141.381v-9.507l-7.162-1.445c-0.25-0.781-0.558-1.535-0.898-2.272l4.564-5.853
				l-6.213-7.196l-6.834,3.851c-1.122-0.63-2.309-1.154-3.55-1.563l-1.576-7.927h-9.507l-1.599,7.924
				c-1.183,0.39-2.321,0.877-3.396,1.468l-7.595-4.279l-6.213,7.196l5.091,6.529c-0.21,0.465-0.396,0.941-0.57,1.424l-8.017,1.617
				v9.507l7.634,1.518c0.247,0.833,0.547,1.641,0.894,2.425l-5.332,6.837l6.213,7.196l7.91-4.457
				c0.723,0.396,1.478,0.738,2.251,1.045l1.8,9.051h9.507l1.694-8.397c1.053-0.299,2.066-0.683,3.041-1.141l7.854,4.425l6.213-7.196
				l-4.749-6.089c0.55-1.039,1.013-2.13,1.378-3.266L446.195,141.381z M419.758,146.939c-5.703,0-10.326-4.623-10.326-10.326
				c0-5.703,4.623-10.326,10.326-10.326c5.703,0,10.326,4.623,10.326,10.326C430.084,142.316,425.461,146.939,419.758,146.939z"/>
			
				<ellipse transform="matrix(0.7071 -0.7071 0.7071 0.7071 26.0043 336.7194)" style="fill:none;stroke:#FFFFFF;stroke-linecap:round;stroke-linejoin:round;stroke-miterlimit:10;" cx="419.458" cy="136.97" rx="15.643" ry="15.643"/>
		</g>
		<path style="fill:#FF8968;" d="M285.349,66.643h-4.429v-4.429c0-0.276-0.224-0.5-0.5-0.5c-0.276,0-0.5,0.224-0.5,0.5v4.429h-4.429
			c-0.276,0-0.5,0.224-0.5,0.5c0,0.276,0.224,0.5,0.5,0.5h4.429v4.429c0,0.276,0.224,0.5,0.5,0.5c0.276,0,0.5-0.224,0.5-0.5v-4.429
			h4.429c0.276,0,0.5-0.224,0.5-0.5C285.849,66.867,285.625,66.643,285.349,66.643z"/>
		<path style="fill:#FF8968;" d="M64.095,237.056h-4.429v-4.429c0-0.276-0.224-0.5-0.5-0.5c-0.276,0-0.5,0.224-0.5,0.5v4.429h-4.429
			c-0.276,0-0.5,0.224-0.5,0.5s0.224,0.5,0.5,0.5h4.429v4.429c0,0.276,0.224,0.5,0.5,0.5c0.276,0,0.5-0.224,0.5-0.5v-4.429h4.429
			c0.276,0,0.5-0.224,0.5-0.5S64.371,237.056,64.095,237.056z"/>
		<path style="fill:#FF8968;" d="M424.686,225.234h-4.429v-4.429c0-0.276-0.224-0.5-0.5-0.5c-0.276,0-0.5,0.224-0.5,0.5v4.429
			h-4.429c-0.276,0-0.5,0.224-0.5,0.5s0.224,0.5,0.5,0.5h4.429v4.429c0,0.276,0.224,0.5,0.5,0.5c0.276,0,0.5-0.224,0.5-0.5v-4.429
			h4.429c0.276,0,0.5-0.224,0.5-0.5S424.963,225.234,424.686,225.234z"/>
		<circle style="fill:#FF9A8D;" cx="218.006" cy="139.931" r="3.318"/>
		<circle style="fill:#FF9A8D;" cx="169.009" cy="295.966" r="3.318"/>
		<path style="fill:#FFF1E2;" d="M110.786,66.429h59.357c0,0-3.857-10.071-13.5-14.143C147,48.214,139.5,55.5,139.5,55.5
			s-6.645-12.938-19.717-11.652c-13.071,1.286-17.355,11.285-17.355,11.285s-15-2.848-16.5,11.295H110.786z"/>
		<path style="fill:#FFF1E2;" d="M400.858,89.813h48.645c0,0-3.161-8.254-11.064-11.591c-7.903-3.337-14.049,2.634-14.049,2.634
			s-5.446-10.603-16.159-9.549c-10.712,1.054-14.223,9.249-14.223,9.249s-12.293-2.334-13.522,9.257H400.858z"/>
	</g>
	<g>
		<g>
			<g>
				<polygon style="fill:#D86A7D;" points="192.01,317 158.499,340.153 143.876,418.143 155.453,418.143 174.036,356.299 
					194.143,350.511 				"/>
				<polygon style="fill:#D86A7D;" points="321.437,317 354.948,340.153 369.571,418.143 357.995,418.143 339.411,356.299 
					319.305,350.511 				"/>
				<polygon style="fill:#313280;" points="263.286,351 251.429,351 200.714,351 207.286,388.428 251.429,388.428 263.286,388.428 
					307.429,388.428 314,351 				"/>
				<path style="fill:#4343AA;" d="M215.327,384.143L215.327,384.143c-2.311,0-4.184-1.874-4.184-4.184v-15.203
					c0-2.311,1.873-4.184,4.184-4.184h0c2.311,0,4.184,1.873,4.184,4.184v15.203C219.512,382.269,217.638,384.143,215.327,384.143z"
					/>
				<path style="fill:#4343AA;" d="M232.339,384.143L232.339,384.143c-2.311,0-4.184-1.874-4.184-4.184v-15.203
					c0-2.311,1.873-4.184,4.184-4.184l0,0c2.311,0,4.184,1.873,4.184,4.184v15.203C236.524,382.269,234.65,384.143,232.339,384.143z
					"/>
				<path style="fill:#4343AA;" d="M249.351,384.143L249.351,384.143c-2.311,0-4.184-1.874-4.184-4.184v-15.203
					c0-2.311,1.873-4.184,4.184-4.184l0,0c2.311,0,4.184,1.873,4.184,4.184v15.203C253.536,382.269,251.662,384.143,249.351,384.143
					z"/>
				<path style="fill:#4343AA;" d="M266.363,384.143L266.363,384.143c-2.311,0-4.184-1.874-4.184-4.184v-15.203
					c0-2.311,1.873-4.184,4.184-4.184l0,0c2.311,0,4.184,1.873,4.184,4.184v15.203C270.547,382.269,268.674,384.143,266.363,384.143
					z"/>
				<path style="fill:#4343AA;" d="M283.375,384.143L283.375,384.143c-2.311,0-4.184-1.874-4.184-4.184v-15.203
					c0-2.311,1.873-4.184,4.184-4.184l0,0c2.311,0,4.184,1.873,4.184,4.184v15.203C287.559,382.269,285.686,384.143,283.375,384.143
					z"/>
				<path style="fill:#4343AA;" d="M300.387,384.143L300.387,384.143c-2.311,0-4.184-1.874-4.184-4.184v-15.203
					c0-2.311,1.873-4.184,4.184-4.184l0,0c2.311,0,4.184,1.873,4.184,4.184v15.203C304.571,382.269,302.698,384.143,300.387,384.143
					z"/>
				<path style="fill:#5454C8;" d="M324.71,312.71H187.57c0,0-0.26-80.06,20.29-140.75v-0.01c1.29-3.8,2.66-7.53,4.11-11.15
					c4.08-0.73,8.98-1.44,14.72-1.99c6.79-0.66,14.74-1.1,23.89-1.12c1.17,0,2.35,0.01,3.56,0.02c6.7,0.07,13,0.32,18.84,0.7
					c5.96,0.38,11.44,0.88,16.37,1.43c4.12,0.47,7.86,0.97,11.17,1.46c0.15,0.37,0.3,0.75,0.45,1.15c0.23,0.59,0.47,1.22,0.72,1.87
					c0.32,0.86,0.65,1.74,0.97,2.62c0.32,0.89,0.63,1.77,0.93,2.61c0.22,0.63,0.43,1.24,0.63,1.81
					C324.97,232.12,324.71,312.71,324.71,312.71z"/>
				<path style="fill:#9A7BF0;" d="M313.17,312.71c-1.15,21-3.78,38.95-5.49,49h-86.29c-3.93-9.58-9.05-25.67-11.8-49h52.55
					c0.49,16.93,0.58,33.26,0.04,47.86h25.38c0,0,0.37-20,0.04-47.86H313.17z"/>
				<path style="fill:#7272DB;" d="M287.6,312.71h-25.46c-1.52-52.93-7.03-111.64-10.07-141.08c8.38-0.06,16.93-0.11,24.61-0.16
					C284.79,207.03,287.06,269.38,287.6,312.71z"/>
				<ellipse style="fill:#4343AA;" cx="253.804" cy="214.181" rx="34.804" ry="33.715"/>
				<path style="fill:#9A7BF0;" d="M288.61,210.43c0,3.09-0.43,6.09-1.24,8.92c-0.61,2.14-1.43,4.18-2.45,6.11
					c-5.42,10.36-16.27,17.43-28.78,17.43c-17.93,0-32.46-14.53-32.46-32.46c0-8.61,3.34-16.42,8.81-22.23
					c2.58-2.76,5.64-5.06,9.06-6.78c0,0,0-0.01,0.01-0.01c4.38-2.21,9.34-3.45,14.58-3.45C274.07,177.96,288.61,192.5,288.61,210.43
					z"/>
				<rect x="123.55" y="418.143" style="fill:#FFB5B3;" width="263.45" height="17.287"/>
				<rect x="104.143" y="435.43" style="fill:#FF9A8D;" width="296.571" height="17.287"/>
				<path style="fill:#D86A7D;" d="M250.58,157.69c0.36,3.26,0.88,8.01,1.49,13.94c-10.43,0.07-20.62,0.14-28.57,0.21
					c1.2-5.07,2.29-9.48,3.19-13.03C233.48,158.15,241.43,157.71,250.58,157.69z"/>
				<path style="fill:#D86A7D;" d="M292.98,171.38c-4.52,0.02-10.13,0.05-16.3,0.09c-1.12-4.9-2.35-9.3-3.7-13.06
					c5.96,0.38,11.44,0.88,16.37,1.43C290.09,162.08,291.37,166.02,292.98,171.38z"/>
				<path style="fill:#826ADB;" d="M221.39,361.71h-33.82v-49h22.02C212.34,336.04,217.46,352.13,221.39,361.71z"/>
				<path style="fill:#BA5B70;" d="M226.69,158.81c-0.9,3.55-1.99,7.96-3.19,13.03c-9.36,0.07-15.64,0.12-15.64,0.12v-0.01
					c1.29-3.8,2.66-7.53,4.11-11.15c1.4-0.25,2.9-0.5,4.5-0.74c0.32-0.05,0.65-0.09,0.97-0.14
					C220.24,159.51,223.32,159.13,226.69,158.81z"/>
				<path style="fill:#4343AA;" d="M207.86,290.14c0.31,8.17,0.91,15.68,1.73,22.57h-22.02c0,0-0.26-80.06,20.29-140.75
					c0,0,6.28-0.05,15.64-0.12C216.68,200.85,206.41,251.69,207.86,290.14z"/>
				<path style="fill:#AB97F7;" d="M324.71,312.71v49h-17.03c1.71-10.05,4.34-28,5.49-49H324.71z"/>
				<path style="fill:#ED8EA3;" d="M304.22,171.36c-0.1-0.03-4.45-0.02-11.24,0.02c-1.61-5.36-2.89-9.3-3.63-11.54
					c4.12,0.47,7.86,0.97,11.17,1.46c0.15,0.37,0.3,0.75,0.45,1.15c0.23,0.59,0.47,1.22,0.72,1.87c0.32,0.86,0.65,1.74,0.97,2.62
					c0.32,0.89,0.63,1.77,0.93,2.61C303.81,170.18,304.02,170.79,304.22,171.36z"/>
				<path style="fill:#7272DB;" d="M324.71,312.71h-11.54c1-18.11,0.88-38.49-1.88-58.05c-5.08-35.92-13.28-66.53-18.31-83.28
					c6.79-0.04,11.14-0.05,11.24-0.02C324.97,232.12,324.71,312.71,324.71,312.71z"/>
				<path style="fill:#826ADB;" d="M284.92,225.46c-5.42,10.36-16.27,17.43-28.78,17.43c-17.93,0-32.46-14.53-32.46-32.46
					c0-8.61,3.34-16.42,8.81-22.23c0.83,1.34,2.45,3.86,4.77,6.97c-3.38,4.17-5.4,9.47-5.4,15.26c0,13.41,10.87,24.28,24.28,24.28
					c8.25,0,15.54-4.11,19.91-10.4C278.91,225,281.87,225.4,284.92,225.46z"/>
				<path style="fill:#FFD00A;" d="M276.05,224.31c-4.37,6.29-11.66,10.4-19.91,10.4c-13.41,0-24.28-10.87-24.28-24.28
					c0-5.79,2.02-11.09,5.4-15.26C244.39,204.76,258.17,220.03,276.05,224.31z"/>
				<path style="fill:#FFE98A;" d="M280.42,210.43c0,5.17-1.61,9.95-4.37,13.88c-17.88-4.28-31.66-19.55-38.79-29.14
					c4.44-5.5,11.25-9.02,18.88-9.02C269.55,186.15,280.42,197.02,280.42,210.43z"/>
				<path style="fill:#ED8EA3;" d="M276.68,171.47c-7.68,0.05-16.23,0.1-24.61,0.16c-0.61-5.93-1.13-10.68-1.49-13.94
					c1.17,0,2.35,0.01,3.56,0.02c1.59,0.02,3.16,0.04,4.71,0.08c0.2,0,0.41,0.01,0.61,0.02c2.31,0.05,4.56,0.13,6.76,0.23
					c2.32,0.1,4.57,0.23,6.76,0.37C274.33,162.17,275.56,166.57,276.68,171.47z"/>
				<path style="fill:#AB97F7;" d="M287.56,360.57h-25.38c0.54-14.6,0.45-30.93-0.04-47.86h25.46
					C287.93,340.57,287.56,360.57,287.56,360.57z"/>
				<path style="fill:#AB97F7;" d="M287.37,219.35c0.83-15.11-8.96-30.63-24.38-35.92c-8.36-2.87-15.82-2.86-21.43-2.02
					c4.38-2.21,9.34-3.45,14.58-3.45c17.93,0,32.47,14.54,32.47,32.47C288.61,213.52,288.18,216.52,287.37,219.35z"/>
				<polygon style="fill:#BA5B70;" points="158.499,340.153 168.599,374.394 174.036,356.299 188.426,352.157 187.57,320.068 				
					"/>
				<polygon style="fill:#BA5B70;" points="324.71,332.143 346.934,347.285 363.286,418.143 357.995,418.143 339.411,356.299 
					324.71,352.067 				"/>
			</g>
			<g>
				<path style="fill:#9A7BF0;" d="M48.31,447.143h5.368v-7.159H41.475c-1.409,0-2.552-1.143-2.552-2.552s1.142-2.552,2.552-2.552
					h12.203v-52.934H44.95c-2.522,0-4.566-2.044-4.566-4.566c0-2.522,2.044-4.566,4.566-4.566h22.457
					c2.522,0,4.566,2.044,4.566,4.566c0,2.522-2.044,4.566-4.566,4.566h-8.868v52.934h13.835c1.409,0,2.552,1.143,2.552,2.552
					s-1.143,2.552-2.552,2.552H58.539v7.159h5.294c5.184,0,9.386,4.202,9.386,9.386H58.539h-4.861H38.923
					C38.923,451.345,43.126,447.143,48.31,447.143z"/>
				<path style="fill:#FFB696;" d="M59.324,439.596l-1.015,2.981c0,0-0.824,1.269-3.171,1.078s-2.854-1.015-2.854-1.015l0.507-3.805
					L59.324,439.596z"/>
				<path style="fill:#FFB696;" d="M80.396,433.318l-2.433,3.976c0,0-2.271-0.163-3.774-0.888s-1.929-1.717-1.929-1.717l1.951-3.781
					L80.396,433.318z"/>
				<path style="fill:#313280;" d="M78.344,436.829c0,0,1.989,5.3,3.546,7.367c1.557,2.067,2.131,2.574,1.975,3.521
					c-0.157,0.947-3.924,1.122-6.805-0.952c-2.881-2.074-3.228-3.108-4.532-4.7s-2.635-2.662-3.043-3.715
					c-0.408-1.053,3.484-5.033,3.484-5.033S73.562,436.288,78.344,436.829z"/>
				<path style="fill:#313280;" d="M58.309,442.577c0,0,0.444,4.44,1.522,7.674c1.078,3.234,2.093,4.82,1.586,6.215
					c-0.507,1.395-2.41,2.03-5.613,1.142c-3.203-0.888-3.837-3.298-4.408-6.279c-0.571-2.981-0.634-3.425-0.571-3.932
					c0.063-0.507,1.459-5.835,1.459-5.835S54.821,443.718,58.309,442.577z"/>
				<path style="fill:#313280;" d="M93.42,402.69L81.8,435.3c0,0-2.18,0.22-5.04-1.23c-1.12-0.55-2.35-1.38-3.59-2.57
					c0,0,3.96-26.87,7.82-31.7l-14.91-20.71c2.01,8.13,4.07,18.24,3.71,24.5l-8.8,35.69c-1.72,1.89-4.26,1.86-6.35,1.37
					c-2.03-0.47-3.62-1.37-3.62-1.37s5.28-35.42,5.3-35.46c-1.68-4.77-7.58-21.97-8.33-29.65c0.37-5.08,1.59-14.39,1.59-14.39
					l4.26-0.02l22.04-0.13l0.45,5.44l0.05-0.04c0,0,11.12,15.32,16.59,27.66C94.37,395.85,94.54,399.42,93.42,402.69z"/>
				<path style="fill:#D86A7D;" d="M77.834,314.772c0,0,2.594,1.262,3.014,4.767l8.832,25.376l-8.272,4.767
					c0,0-4.767-8.973-5.468-15.562C75.24,327.53,77.834,314.772,77.834,314.772z"/>
				<path style="fill:#FF8B9B;" d="M67.88,311.688l9.954,3.084c0,0,1.262,6.029,1.262,11.847c0,5.818-2.03,17.174-2.03,17.174
					l-1.244,16.683l-26.237-0.701c0,0-2.574-36.907-1.172-45.459l11.911-4.381L67.88,311.688z"/>
				<path style="fill:#FFB696;" d="M60.262,310.426l0.906-7.309c-0.763-3.873-1.813-11.142,0.543-13.194
					c3.26-2.839,15.562-3.119,15.352,6.905c0,0-1.402,8.272-3.645,11.917c-0.903,1.468-2.977,1.241-5.133,0.447l-1.211,5.125
					L60.262,310.426z"/>
				<path style="fill:#313280;" d="M76.747,295.443c0,0-7.045,0.946-9.516-1.472c0,0,0.368,2.734-0.736,4.416
					c-1.104,1.682-2.471,1.525-2.471,1.525s0-2.681-1.157-2.629c-1.157,0.053-1.397,2.902-0.83,4.553
					c0.567,1.651,1.356,1.651,1.356,1.651l-2.421,1.209c0,0-1.837-8.149-1.837-10.725c0-2.576,1.419-3.575,1.419-3.575
					s0.841-2.734,4.364-3.102c3.522-0.368,7.676,1.104,11.146,2.944c3.47,1.84,3.891,3.628,3.628,3.996
					c-0.263,0.368-1.051,0.368-1.051,0.368s0.584,3.513-1.916,3.991C76.724,298.592,77.062,296.389,76.747,295.443z"/>
				<path style="fill:#26295E;" d="M54.64,440.65c-2.03-0.47-3.62-1.37-3.62-1.37s5.28-35.42,5.3-35.46
					c-1.68-4.77-7.58-21.97-8.33-29.65c0.37-5.08,1.59-14.39,1.59-14.39s4.3,0.07,4.32,0.11c0,0-2.47,7.29-1.19,15.97
					c1.29,8.68,7.5,28.39,7.83,30.21C60.85,407.83,52.83,431.03,54.64,440.65z"/>
				<path style="fill:#D88C71;" d="M68.285,309.191c0,0-3.892-1.395-4.628-4.496c0,0-0.006,5.374,4.124,6.63L68.285,309.191z"/>
				<polygon style="fill:#FFEFCA;" points="60.624,307.508 67.073,314.316 62.999,316.823 58.771,310.506 				"/>
				<polygon style="fill:#FFEFCA;" points="67.856,311.006 67.073,314.316 70.263,315.543 69.949,311.475 68.23,309.585 				"/>
				<path style="fill:#D86A7D;" d="M48.412,314.316c0,0,2.854,1.998,4.116,7.606c1.262,5.608,1.542,26.497,1.542,26.497
					l-7.991,1.262c0,0-3.505-16.964-2.383-25.656C44.817,315.333,48.412,314.316,48.412,314.316z"/>
				<path style="fill:#FFB696;" d="M112.991,355.99c-0.046-0.321-0.373-0.99-0.659-1.74s-1.25-1.329-2.214-1.901
					c-0.964-0.571-6.179-0.278-6.179-0.278l-0.125,0.116l-14.134-7.273c-4.206-0.28-8.272,4.767-8.272,4.767
					c2.024,2.136,14.227,4.901,18.986,5.914l2.652,2.244l4.964,1.571c0,0,0.286-0.929,0-1.357c-0.286-0.428-2.571-1.234-2.964-1.796
					c-0.393-0.561-0.322-1.026,1.857-1.061c2.179-0.036,2.286,0.911,2.893,1.339c0.607,0.429,0.964,1.857,2.036,2.036
					c1.071,0.179,1.071,0.179,1.071,0.179l-0.25-1.643C112.654,357.107,113.037,356.311,112.991,355.99z"/>
				<path style="fill:#FFB696;" d="M54.07,348.419l16.935,9.228l-3.932,4.511c0,0-15.328-4.486-18.301-6.87
					c-2.974-2.383-2.693-5.608-2.693-5.608S50.285,347.718,54.07,348.419z"/>
				
					<rect x="48.732" y="362.159" transform="matrix(-1 -1.224647e-16 1.224647e-16 -1 199.3617 728.376)" style="fill:#FF8B9B;" width="101.897" height="4.059"/>
				<path style="fill:#9A7BF0;" d="M147.13,318.2l-7.44,32.42c-0.23,1.01-1.13,1.73-2.16,1.73H86.15c-1.41,0-2.47-1.3-2.17-2.69
					l6.91-32.42c0.14-0.67,0.58-1.22,1.16-1.5c0-0.01,0-0.01,0-0.01c0.31-0.16,0.66-0.25,1.02-0.25h51.89
					C146.39,315.48,147.45,316.81,147.13,318.2z"/>
				<path style="fill:#836CD8;" d="M135.95,352.35h-49.8c-1.41,0-2.47-1.3-2.17-2.69l6.91-32.42c0.14-0.67,0.58-1.22,1.16-1.5
					C92.29,316.15,106.54,341.42,135.95,352.35z"/>
				<polygon style="fill:#5454C9;" points="122.893,336.79 127.798,362.159 102.598,362.159 103.444,360.129 113.591,360.129 
					110.209,336.79 				"/>
				<path style="fill:#FFB696;" d="M69.807,357.848l9.288-0.736l3.961,2.944l0.526,2.103H67.073
					C67.073,362.159,67.967,358.952,69.807,357.848z"/>
				<polygon style="fill:#D86A7D;" points="141.581,366.217 130.673,456.529 97.694,456.529 109.871,366.217 				"/>
				<polygon style="fill:#BA5B70;" points="140.594,374.394 106.876,388.428 109.871,366.217 141.581,366.217 				"/>
				<path style="fill:#26295E;" d="M85.18,398.79c0,0-4.39,12.85-6.43,22.92c-1.35,6.67-1.82,10.51-1.99,12.36
					c-1.12-0.55-2.35-1.38-3.59-2.57c0,0,3.96-26.87,7.82-31.7l-14.91-20.71l-0.72-5.05L85.18,398.79z"/>
			</g>
			<g>
				<path style="fill:#4343AA;" d="M250.9,133.07c0,0,38.45,21.93,87.96,30.07C338.86,163.14,297.571,134.714,250.9,133.07z"/>
				<path style="fill:#313280;" d="M342.399,231.376l-0.053,4.982c0,0-6.857,3.429-8.839,4.286
					c-1.982,0.857-2.411,2.196-1.018,2.679c1.393,0.482,18.697,0.616,18.964,0c0.696-1.607-1.821-6.911-1.821-6.911l-0.429-5.036
					H342.399z"/>
				<path style="fill:#313280;" d="M380.507,230.001l2.643,4.286c0,0-3.219,4.706-4.786,5.714c-0.934,0.601-3.357,0.928-4,1.928
					s0,1.755,4.071,1.806c4.072,0.051,5.143-0.021,7.5-1.663c2.357-1.643,6.857-5.714,6.786-6.857
					c-0.072-1.143-3.286-3.839-3.286-3.839l-1.357-3.089L380.507,230.001z"/>
				<path style="fill:#DD7385;" d="M360.292,158.144c0,0-0.643,20.786,3.643,35.786c4.286,15,15.857,38.786,15.857,38.786l12-3.428
					c0,0-8.571-31.072-14.357-39.214c0,0-2.143-34.714-4.5-39.429C370.578,145.93,360.292,158.144,360.292,158.144z"/>
				<path style="fill:#FF9F7F;" d="M330.472,77.239c4.76-4.597,14.203-3.323,15.66,2.157c1.222,4.593,0.949,9.519-0.516,13.073
					l2.375,6.193l-6.304,5.115l-2.558-4.695c-1.341,0.618-2.708,0.975-3.951,1.039c-3.182,0.163-5.434-4.217-6.738-11.865
					C327.135,80.609,330.472,77.239,330.472,77.239z"/>
				<path style="fill:#D86A7D;" d="M338.05,158.02c-7.92-3.86-18.65-8.63-31.71-13.4c-3.64-1.33-7.46-2.66-11.45-3.97
					c-17.69-5.79-31.54-8.49-41.14-9.73c3.06-3.73,6.2-7.28,9.42-10.59c14.73-15.18,31.06-25.46,48.54-26.35
					c0.99,0.77,1.95,1.58,2.88,2.42c1.58,1.44,3.07,2.98,4.45,4.61C330.86,114.78,336.37,135.23,338.05,158.02z"/>
				<path style="fill:#BA5B70;" d="M306.79,145.316c12.93-12.99,9.91-38.71,8.25-48.22c14.91,13.56,21.58,36.13,23.46,61.62
					C330.581,154.856,319.85,150.086,306.79,145.316z"/>
				<path style="fill:#9A7BF0;" d="M360.053,105.016c0,0,10.261,12.065,11.829,32.716l-20.939,7.946
					c0,0-13.212-21.668-14.653-29.376c-1.441-7.708,2.911-15.747,2.911-15.747l7.784-5.174
					C346.984,95.381,356.884,99.794,360.053,105.016z"/>
				<path style="fill:#5454C8;" d="M351.99,105.041c2.431,1.977,2.786,5.555,0.787,7.967c-4.14,4.994-10.974,12.992-15.683,17.243
					c-7.173,6.475-32.216-1.122-32.216-1.122l1.19-6.568l25.664-0.126l12.177-16.383C345.823,103.475,349.5,103.015,351.99,105.041
					L351.99,105.041z"/>
				<path style="fill:#313280;" d="M327.942,82.039c0,0-0.824-3.974,2.52-6.785c3.344-2.811,7.997-2.569,10.227-1.696
					c2.23,0.872,2.714,1.26,2.714,1.26s-0.291-1.648,1.454-2.86s5.38,1.212,5.671,4.168c0.291,2.956-2.538,3.005-2.538,3.005
					s0.564,2.617,0,6.592c-0.565,3.974-2.375,6.746-2.375,6.746s-2.261-1.221-3.23-2.868c0,0,2.278-3.199,1.503-5.38
					c-0.775-2.181-3.199-1.309-3.49,0.776c-0.291,2.084-0.291,2.084-0.291,2.084l-1.405-0.339c0,0-1.034-2.714-0.638-5.816
					C338.064,80.925,328.621,83.736,327.942,82.039z"/>
				<path style="fill:#313280;" d="M331.577,100.457c2.569,1.26,6.184,0.679,7.624-1.599s0.955-10.372,0.955-10.372l-1.503-0.679
					l-1.551,4.071c0,0-6.279-1.023-7.938-0.1C329.164,91.779,329.008,99.197,331.577,100.457z"/>
				<polygon style="fill:#5454C8;" points="346.846,93.912 339.201,100.555 340.578,104.573 349.417,96.585 				"/>
				<path style="fill:#FF9F7F;" d="M306.067,122.561l-2.132-0.273c0,0-4.428-1.714-5.821-2.072
					c-1.393-0.357-1.786,0.452-1.536,1.173c0,0-0.75,0.792-0.321,1.863c0,0-0.711,0.741-0.132,1.678c0,0-0.252,0.964,0.284,1.554
					c0.536,0.589,1.553,0.991,2.116,1.071c0.563,0.08,0.884,0,0.884,0s1.178,0.696,2.25,0.696c1.071,0,1.875-0.375,1.875-0.375
					l1.503,0.375L306.067,122.561z"/>
				<polygon style="fill:#5454C8;" points="371.882,137.732 372.935,141.001 352.364,148.93 350.943,145.678 				"/>
				<path style="fill:#FF8B9B;" d="M372.935,141.001l-20.571,7.928l-16.45,35.034c-1.348,2.871-1.851,6.066-1.449,9.212
					l5.043,39.541h11.436c0,0,1.421-9.214,0.992-23.143c-0.258-8.374-1.984-14.869-3.322-18.734
					c1.316-1.668,21.215-26.943,24.322-34.195C376.149,149.144,372.935,141.001,372.935,141.001z"/>
				<path style="fill:#D86A7D;" d="M475.143,458.017H482L386.143,247h11.142v-4.107h-86V247h13.429l20.003,44.767v0.215h0.096
					l11.193,25.05v0.504h0.225l11.063,24.76v0.793h0.354l10.934,24.471v1.082h0.484l10.805,24.182v1.371h0.613l10.676,23.893v1.66
					h0.742l10.547,23.604v1.95h0.871L419,458.017h6.857l-5.775-12.714h49.381L475.143,458.017z M399.121,287.875h-50.553
					l-9.742-21.447h50.713L399.121,287.875z M380.858,247l6.846,15.321H336.96L330,247H380.858z M400.956,291.982l9.582,21.446
					h-50.363l-9.742-21.446H400.956z M412.374,317.536l9.583,21.446h-50.173l-9.742-21.446H412.374z M423.792,343.089l9.583,21.446
					h-49.982l-9.742-21.446H423.792z M435.21,368.643l9.583,21.446H395l-9.742-21.446H435.21z M446.627,394.197l9.582,21.446
					h-49.602l-9.742-21.446H446.627z M418.216,441.197l-9.742-21.447h49.571l9.583,21.447H418.216z"/>
				<path style="fill:#9A7BF0;" d="M338.86,157.69v5.45c0,0-21.21-12.76-42.96-19.81c-21.76-7.04-45-10.26-45-10.26l1.9-2.71
					l0.95-1.35c0,0,17.82-0.69,44.39,8.72C324.71,147.14,338.86,157.69,338.86,157.69z"/>
				<path style="fill:#ED8EA3;" d="M319.04,101.01c-4.04-2.38-9.81-4.03-17.36-2.1c-11.7,3-29.21,14.76-38.51,21.42
					c14.73-15.18,31.06-25.46,48.54-26.35c0.99,0.77,1.95,1.58,2.88,2.42C316.17,97.84,317.66,99.38,319.04,101.01z"/>
				<path style="fill:#826ADB;" d="M338.86,157.69v5.45c0,0-21.21-12.76-42.96-19.81c-21.76-7.04-45-10.26-45-10.26l1.9-2.71
					c3.93,0,13.96,0.67,30.18,6.07C304.43,143.57,334.43,157.38,338.86,157.69z"/>
			</g>
		</g>
		<g>
			<rect x="306.53" y="287.99" style="fill:#8CD3E8;" width="41.73" height="84.56"/>
			
				<line style="fill:none;stroke:#5454C8;stroke-width:0.5;stroke-miterlimit:10;" x1="311.286" y1="293.857" x2="343.972" y2="293.857"/>
			<path style="fill:#71BBCC;" d="M348.26,372.55h-41.73v-84.56C306.53,287.99,318.66,351.52,348.26,372.55z"/>
			
				<line style="fill:none;stroke:#5454C8;stroke-width:0.5;stroke-miterlimit:10;" x1="311.714" y1="297.143" x2="343.972" y2="297.143"/>
			
				<line style="fill:none;stroke:#5454C8;stroke-width:0.5;stroke-miterlimit:10;" x1="311.286" y1="357.655" x2="343.972" y2="357.655"/>
			
				<line style="fill:none;stroke:#5454C8;stroke-width:0.5;stroke-miterlimit:10;" x1="311.714" y1="360.941" x2="343.972" y2="360.941"/>
			
				<line style="fill:none;stroke:#5454C8;stroke-width:0.5;stroke-miterlimit:10;" x1="311.286" y1="364.536" x2="343.972" y2="364.536"/>
			
				<line style="fill:none;stroke:#5454C8;stroke-width:0.5;stroke-miterlimit:10;" x1="311.714" y1="367.821" x2="343.972" y2="367.821"/>
			
				<path style="fill:none;stroke:#FFFFFF;stroke-width:0.5;stroke-linecap:round;stroke-linejoin:round;stroke-miterlimit:10;stroke-dasharray:1;" d="
				M334.316,316.042c-1-8.143-9-13.429-9-13.429s-8,5.286-9,13.429c-1,8.143,4.5,28.441,4.5,28.441h4.5h4.5
				C329.816,344.483,335.316,324.185,334.316,316.042z"/>
			
				<path style="fill:none;stroke:#FFFFFF;stroke-width:0.5;stroke-linecap:round;stroke-linejoin:round;stroke-miterlimit:10;stroke-dasharray:1;" d="
				M318.429,334.453c0,0-4.554,3.261-5.732,4.44c-1.178,1.178-1.178,7.5-1.178,7.5l3.161-4.929l5.235-0.521"/>
			
				<path style="fill:none;stroke:#FFFFFF;stroke-width:0.5;stroke-linecap:round;stroke-linejoin:round;stroke-miterlimit:10;stroke-dasharray:1;" d="
				M332.231,334.453c0,0,4.554,3.261,5.732,4.44c1.179,1.178,1.179,7.5,1.179,7.5l-3.161-4.929l-5.235-0.521"/>
			<path style="fill:#FFE98A;" d="M330.75,320.464c0,2.87-2.327,5.196-5.196,5.196s-5.197-2.327-5.197-5.196
				s2.327-5.196,5.197-5.196S330.75,317.594,330.75,320.464z"/>
			<rect x="333.256" y="301.5" style="fill:#FFE98A;" width="10.716" height="3.375"/>
			<path style="fill:#FFFFFF;" d="M342.006,308.518c0,1.154-0.935,2.089-2.089,2.089c-1.154,0-2.089-0.935-2.089-2.089
				c0-1.154,0.935-2.089,2.089-2.089C341.071,306.429,342.006,307.364,342.006,308.518z"/>
			<path style="fill:#FFB696;" d="M368.89,341.472c0,0,2.282,1.871,1.532,11.835s-3.964,10.714-7.822,10.071L368.89,341.472z"/>
			<path style="fill:#FFB696;" d="M359.26,331.46l-1.3,7.25l-7.66,1.69l0.36-5.25c-1.77,0.09-3.39-0.12-4.23-0.99
				c-0.25-0.26-0.43-0.58-0.53-0.96c-1.06-4.15,0.06-12.47,0.06-12.47c2.78-9.63,12.69-6.07,14.96-2.39
				C362.56,321,361.14,327.99,359.26,331.46z"/>
			<path style="fill:#D88E75;" d="M350.66,335.15c-1.77,0.09-3.39-0.12-4.23-0.99c0.98-0.09,3.66-0.46,4.92-2.02
				C352.48,330.74,350.66,335.15,350.66,335.15z"/>
			<path style="fill:#313280;" d="M364.01,329.8c-0.12,0.25-0.25,0.5-0.39,0.74c-2.52,4.45-6.59,4.5-9.86,3.27
				c-3.27-1.23-2.84-3.22-2.84-3.22s0.91,0.49,1.82-0.85c0.54-0.8,0.8-2.25,0.64-3.33c-0.11-0.73-0.42-1.29-0.96-1.33
				c-0.14-0.01-0.28,0-0.4,0.04c-1.02,0.24-1.37,1.72-1.37,1.72c-0.69-1.07-0.32-2.09-0.32-2.09c-2.89-0.85-3.05-2.62-3.05-2.62
				l-0.27,1.28c-1.5-0.32-3.37-2.57-2.41-5.35c0.85-2.47,2.79-3.32,3.23-3.48c0.06-0.03,0.09-0.04,0.09-0.04
				c1.93-1.27,8.47-3.07,12.43-0.98s3.59,5.41,3.59,5.41C366.02,321.1,366.13,325.56,364.01,329.8z"/>
			<path style="fill:#313280;" d="M369.46,319.77c-0.02,0.08-0.03,0.16-0.05,0.23c-0.52,2.2-2.22,2.97-3.92,2.63
				c-0.01,0-0.01,0-0.02-0.01c-0.54-0.1-1.08-0.33-1.58-0.65c-0.44-0.29-0.82-0.64-1.14-1.01c-0.52-0.62-0.88-1.31-1.12-1.89
				c-0.05-0.1-0.08-0.2-0.11-0.29c-0.23-0.61-0.31-1.04-0.31-1.04s-0.04-0.33-0.03-0.83c-0.01-0.04-0.01-0.08,0-0.12
				c0-0.09,0-0.18,0.01-0.28c0,0,0,0,0-0.01c0.1-1.34,0.65-3.33,2.96-3.64C367.69,312.38,370.05,316.66,369.46,319.77z"/>
			<path style="fill:#9A7BF0;" d="M365.37,372.46l0.01,0.75c0,0-4.45,1.68-10.6,1.35c-2.41-0.13-4.74-0.45-6.68-0.78
				c-3.02-0.53-5.11-1.1-5.11-1.1l1.43-7.55l-0.6-5.38c-1.46-1.15-3.43-2.99-3.83-4.84c-0.41-1.92,0.94-7.76,1.96-11.72l-0.39-3.45
				c0.45-0.14,0.93-0.28,1.44-0.41c0.09-0.02,0.19-0.05,0.28-0.07c5.66-1.44,14.38-2.42,14.38-2.42c4.83,0.53,11.23,4.63,11.23,4.63
				c-0.34,3.34-3.74,17.96-3.74,17.96l0.12,7.11L365.37,372.46z"/>
			<path style="fill:#7961D1;" d="M365.37,372.46l-17.27,1.32c-3.02-0.53-5.11-1.1-5.11-1.1l1.43-7.55l-0.6-5.38
				c-1.46-1.15-3.43-2.99-3.83-4.84c-0.41-1.92,0.94-7.76,1.96-11.72l-0.39-3.45c0.45-0.14,0.93-0.28,1.44-0.41
				c0.09-0.02,0.19-0.05,0.28-0.07c0.53,4.64,2.82,20.7,7.41,24.29c4.16,3.26,11.57,3.18,14.58,2.99L365.37,372.46z"/>
			<path style="fill:#FFB696;" d="M341.565,339.74l-14.858,10.139l-14.005-12.862l0.023-0.022c0,0-0.777-2.946-1.018-3.589
				c-0.241-0.643-1.607-2.33-2.009-2.411c-0.402-0.08-0.295,0.455-0.161,0.804c0.134,0.348,0.589,1.768,0.589,1.768l-2.759-1.393
				c0,0-0.67-1.848-1.125-1.902c-0.455-0.054-0.321,1.741,0.134,2.491c0,0-0.617,0.455-0.416,1.232c0,0-0.522,0.509-0.2,1.286
				c0,0-0.723,0.723,0.589,2.17c1.313,1.447,3.134,2.709,3.134,2.709v0c1.607,2.327,11.009,15.656,16.58,17.22
				c6.107,1.714,14.893-5.107,14.893-5.107S347.315,347.172,341.565,339.74z"/>
			<path style="fill:#FFB696;" d="M358.42,468.63c-0.79,0.14-16.57,0.36-16.86-0.43c-0.28-0.79-0.57-1.5,2.86-2.57
				c0.71-0.22,1.47-0.6,2.23-1.04c2.01-1.2,4-2.94,5.01-3.88l-3.09-16.23l-0.72-3.78h9.42c0.21,0.78,0.36,2.45,0.47,4.53
				c0.28,5.45,0.26,13.69,0.25,15.9c0,0,0.14,0.85,0.29,1.98C358.58,465.3,358.94,468.54,358.42,468.63z"/>
			<path style="fill:#FFB696;" d="M382.27,468.2c-0.67,0.43-11.24,0.12-14.17,0.03c-0.45-0.02-0.72-0.53-0.45-0.89
				c0.51-0.69,1.61-1.41,3.05-2.21c0.35-0.19,0.7-0.47,1.04-0.81c1.19-1.16,2.3-2.99,2.86-3.98l-3.69-15.85h-0.01l-1.02-4.4
				l8.79,1.07c0.3,0.81,0.56,2.29,0.8,4.09c0.66,5.01,1.07,12.48,1.2,14.8l0.03,0.01c0,0,0.31,1,0.66,2.29
				C381.99,464.64,382.77,467.88,382.27,468.2z"/>
			<path style="fill:#D88E75;" d="M357.74,445.23c-4.78,0.26-9.17-0.75-9.17-0.75l-0.72-3.78h9.42
				C357.48,441.48,357.63,443.15,357.74,445.23z"/>
			<path style="fill:#D88E75;" d="M379.47,445.25c-4.26,0.15-8.09-0.66-8.56-0.76h-0.01l-1.02-4.4l8.79,1.07
				C378.97,441.97,379.23,443.45,379.47,445.25z"/>
			<path style="fill:#313280;" d="M381.19,440.41c-2.26,1-4.61,1.43-6.68,1.59c-3.62,0.26-6.39-0.34-6.39-0.34l-10.98-47.32
				l2.37,46.36c-2.1,1.33-5.05,1.66-7.65,1.62c-0.03,0.01-0.05,0.01-0.08,0c-1.66-0.02-3.18-0.19-4.24-0.35
				c-0.96-0.14-1.55-0.27-1.55-0.27s-9.21-38.36-7.71-51.86s4.71-17.16,4.71-17.16c4.71-1.25,8.88-1.87,12.3-2.14
				c6.29-0.52,10.05,0.13,10.05,0.13c7.24,7.93,7.01,19.6,7.01,19.6L381.19,440.41z"/>
			<path style="fill:#313280;" d="M358.424,468.63c-0.79,0.14-16.57,0.36-16.86-0.43c-0.28-0.79-0.57-1.5,2.86-2.57
				c0.71-0.22,1.47-0.6,2.23-1.04c-0.01,0.26,0.13,0.55,0.77,0.57c1.18,0.04,3.43-0.6,6.78-2.04c3.22-1.37,4.02-0.11,4.08-0.01
				C358.584,465.3,358.944,468.54,358.424,468.63z"/>
			<path style="fill:#313280;" d="M382.274,468.2c-0.67,0.43-11.24,0.12-14.17,0.03c-0.45-0.02-0.72-0.53-0.45-0.89
				c0.51-0.69,1.61-1.41,3.05-2.21c0.35-0.19,0.7-0.47,1.04-0.81c0.26,0.11,0.72,0.17,1.5,0.02c1.92-0.35,2.61-2.78,5.53-2.78
				c1.46,0,2.2,0.39,2.59,0.79C381.994,464.64,382.774,467.88,382.274,468.2z"/>
			<path style="fill:#26295E;" d="M374.51,442c-3.62,0.26-6.39-0.34-6.39-0.34l-10.98-47.32l7.86-5.91c0,0-0.83,15.86,1.59,28.43
				C368.59,427.27,373.04,438.46,374.51,442z"/>
			<path style="fill:#26295E;" d="M344.44,392.79c-1.99,20.11,7.2,48.86,7.42,49.53c0,0.01,0,0.01,0,0.01l-0.08-0.01l-4.24-0.35
				c-0.96-0.14-1.55-0.27-1.55-0.27s-9.21-38.36-7.71-51.86s4.71-17.16,4.71-17.16c4.71-1.25,8.88-1.87,12.3-2.14
				C352.14,372.34,345.92,377.75,344.44,392.79z"/>
			<path style="fill:#D88E75;" d="M326.839,350.455l-1.523,3.78C325.316,354.235,324.107,350.874,326.839,350.455z"/>
			<path style="fill:#7961D1;" d="M351.365,357.655h12.879c0,0,0.185,2.202-5.386,2.202
				C353.286,359.857,351.365,357.655,351.365,357.655z"/>
			<path style="fill:#26295E;" d="M350.65,326.84c-0.69-1.07-0.32-2.09-0.32-2.09c-2.89-0.85-3.05-2.62-3.05-2.62l-0.27,1.28
				c-1.5-0.32-3.37-2.57-2.41-5.35c0.85-2.47,2.79-3.32,3.23-3.48c0.17,1.8,0.9,6.93,4.19,10.54
				C351,325.36,350.65,326.84,350.65,326.84z"/>
			<path style="fill:#26295E;" d="M364.01,329.8c-0.12,0.25-0.25,0.5-0.39,0.74c-2.52,4.45-6.59,4.5-9.86,3.27
				c-3.27-1.23-2.84-3.22-2.84-3.22s0.91,0.49,1.82-0.85c0.54-0.8,0.8-2.25,0.64-3.33c0.96,0.77,2.09,1.41,3.41,1.85
				C360.11,329.38,362.42,329.76,364.01,329.8z"/>
			<path style="fill:#26295E;" d="M369.41,320c-0.52,2.2-2.22,2.97-3.92,2.63c-0.01,0-0.01,0-0.02-0.01
				c-1.22-0.35-2.1-0.96-2.72-1.66c-0.54-0.6-0.89-1.26-1.12-1.89c-0.05-0.1-0.08-0.2-0.11-0.29c-0.24-0.76-0.32-1.45-0.34-1.87
				c-0.01-0.04-0.01-0.08,0-0.12c-0.02-0.21-0.01-0.33-0.01-0.33c0.01,0.01,0.01,0.03,0.02,0.04c0,0.01,0,0.01,0,0.01
				C362.68,319.82,367.46,320.05,369.41,320z"/>
		</g>
	</g>
</g>
</svg>
