<?xml version="1.0" encoding="UTF-8"?>
<svg version="1.1" xmlns="http://www.w3.org/2000/svg" width="137" height="227">
<path d="M0 0 C45.21 0 90.42 0 137 0 C137 74.91 137 149.82 137 227 C91.79 227 46.58 227 0 227 C0 152.09 0 77.18 0 0 Z " fill="none" transform="translate(0,0)"/>
<path d="M0 0 C0.65725571 -0.00686325 1.31451141 -0.0137265 1.99168396 -0.02079773 C4.16402805 -0.03909689 6.33565202 -0.03522403 8.50805664 -0.02954102 C10.01876562 -0.03410157 11.52947252 -0.03940677 13.04017639 -0.04542542 C16.20688299 -0.05436275 19.3733375 -0.05192675 22.54003906 -0.04199219 C26.59679669 -0.03050514 30.65268354 -0.05070571 34.70932674 -0.07990932 C37.82948834 -0.09826311 40.94944099 -0.09798053 44.06964302 -0.0922718 C45.565163 -0.09211847 47.06069703 -0.09817316 48.5561657 -0.11056328 C50.64867488 -0.12545616 52.73957224 -0.11481162 54.83203125 -0.09765625 C56.6171537 -0.097407 56.6171537 -0.097407 58.43833923 -0.09715271 C62.10994811 0.50771394 63.31211427 1.41829261 65.48071289 4.40405273 C65.73071289 8.15405273 65.73071289 8.15405273 65.48071289 11.40405273 C66.24738281 11.38310547 67.01405273 11.3621582 67.80395508 11.34057617 C71.27940749 11.25740115 74.75465052 11.20538699 78.23071289 11.15405273 C79.43727539 11.12053711 80.64383789 11.08702148 81.88696289 11.05249023 C83.62719727 11.0331543 83.62719727 11.0331543 85.40258789 11.01342773 C86.47089844 10.99248047 87.53920898 10.9715332 88.63989258 10.94995117 C91.48071289 11.40405273 91.48071289 11.40405273 93.82739258 12.85229492 C96.30778927 16.68057404 96.05389927 20.14979785 96.01196289 24.62280273 C96.01770325 25.96513977 96.01770325 25.96513977 96.02355957 27.33459473 C96.02627809 29.22413256 96.01892105 31.11370805 96.00219727 33.00317383 C95.98078612 35.89416463 96.00200023 38.7826704 96.02758789 41.67358398 C96.0249446 43.51082905 96.0198196 45.34807257 96.01196289 47.18530273 C96.02005981 48.04893433 96.02815674 48.91256592 96.03649902 49.80236816 C95.9432056 55.7782146 95.9432056 55.7782146 93.5949707 58.95581055 C91.06986719 60.6854773 89.75776614 60.83211469 86.73071289 60.65405273 C85.53188477 60.59991211 85.53188477 60.59991211 84.30883789 60.54467773 C83.70555664 60.49827148 83.10227539 60.45186523 82.48071289 60.40405273 C82.42012695 61.06791992 82.35954102 61.73178711 82.29711914 62.41577148 C81.46489567 71.18612655 81.46489567 71.18612655 80.48071289 75.40405273 C79.49071289 74.57905273 78.50071289 73.75405273 77.48071289 72.90405273 C76.819021 72.36095459 76.1573291 71.81785645 75.47558594 71.25830078 C73.48071289 69.40405273 73.48071289 69.40405273 72.08935547 67.34082031 C69.70637011 64.05540263 67.4531853 61.81372314 63.36102295 60.96380615 C56.98261902 60.29888847 50.57069928 60.47469762 44.16821289 60.59155273 C41.25680308 60.61775999 38.3460527 60.63259351 35.43452454 60.63142395 C33.62922973 60.633454 31.82385312 60.65275848 30.01896667 60.69120789 C29.20414322 60.69723526 28.38931976 60.70326263 27.54980469 60.70947266 C26.47680367 60.72901253 26.47680367 60.72901253 25.38212585 60.74894714 C22.85786187 60.29107473 22.01057286 59.43576866 20.48071289 57.40405273 C19.79321289 53.71655273 19.79321289 53.71655273 19.48071289 50.40405273 C18.10786133 51.81170898 18.10786133 51.81170898 16.70727539 53.24780273 C15.50701898 54.46681315 14.3064837 55.68554902 13.10571289 56.90405273 C12.50243164 57.5240918 11.89915039 58.14413086 11.27758789 58.78295898 C10.4074707 59.66274414 10.4074707 59.66274414 9.51977539 60.56030273 C8.98562012 61.10493164 8.45146484 61.64956055 7.90112305 62.21069336 C6.48071289 63.40405273 6.48071289 63.40405273 4.48071289 63.40405273 C4.14294605 61.65490303 3.81067618 59.90469129 3.48071289 58.15405273 C3.29508789 57.17952148 3.10946289 56.20499023 2.91821289 55.20092773 C2.48071289 52.40405273 2.48071289 52.40405273 2.48071289 48.40405273 C1.78204102 48.43885742 1.08336914 48.47366211 0.36352539 48.50952148 C-0.54655273 48.5365918 -1.45663086 48.56366211 -2.39428711 48.59155273 C-3.29920898 48.62635742 -4.20413086 48.66116211 -5.13647461 48.69702148 C-6.3159668 48.55200195 -6.3159668 48.55200195 -7.51928711 48.40405273 C-9.56023965 45.34262392 -9.77217658 44.70663777 -9.79394531 41.25561523 C-9.80347733 40.42465332 -9.81300934 39.59369141 -9.8228302 38.73754883 C-9.82191879 37.84374512 -9.82100739 36.94994141 -9.82006836 36.02905273 C-9.82435349 35.10817871 -9.82863861 34.18730469 -9.83305359 33.23852539 C-9.838796 31.29175641 -9.83929781 29.34496598 -9.83496094 27.39819336 C-9.83179914 24.41540066 -9.85526746 21.4335979 -9.88061523 18.45092773 C-9.882888 16.56030399 -9.88359183 14.66967757 -9.88256836 12.77905273 C-9.89177811 11.88524902 -9.90098785 10.99144531 -9.91047668 10.07055664 C-9.90424789 9.23959473 -9.8980191 8.40863281 -9.89160156 7.55249023 C-9.89223099 6.8220752 -9.89286041 6.09166016 -9.89350891 5.33911133 C-9.51928711 3.40405273 -9.51928711 3.40405273 -8.4034729 1.67002869 C-5.6086603 -0.20779332 -3.34612139 0.01520159 0 0 Z " fill="#C8E1ED" transform="translate(28.519287109375,15.595947265625)"/>
<path d="M0 0 C6.13463219 4.73243055 10.49944058 12.3738414 12.83984375 19.68359375 C13.82104268 30.30564267 13.39558857 39.49689228 6.88671875 48.3359375 C-0.33765236 56.93698073 -8.37105167 61.7424211 -19.53125 62.9375 C-30.16641002 63.45183691 -38.9688272 58.60952337 -46.72265625 51.62109375 C-53.97668515 43.94794318 -55.94810983 35.68604352 -55.81787109 25.3918457 C-55.32976197 15.84157883 -51.72550094 8.7510603 -44.78515625 2.18359375 C-31.15372036 -8.87327077 -15.04763563 -9.17007813 0 0 Z " fill="#CEE8F5" transform="translate(91.16015625,92.31640625)"/>
<path d="M0 0 C21.45 0 42.9 0 65 0 C65 12.54 65 25.08 65 38 C62.07253906 37.96777344 59.14507812 37.93554688 56.12890625 37.90234375 C53.26911597 37.90176043 50.4097871 37.91658467 47.55004883 37.93286133 C45.57442236 37.93592882 43.59870152 37.92316991 41.62329102 37.89379883 C30.17859 37.37098277 30.17859 37.37098277 19.71435547 41.07470703 C17.56018245 43.27722054 15.80738116 45.51724391 14 48 C13.34 48 12.68 48 12 48 C11.67 44.7 11.34 41.4 11 38 C7.37 38 3.74 38 0 38 C0 25.46 0 12.92 0 0 Z " fill="#333434" transform="translate(24,21)"/>
<path d="M0 0 C2.77649962 9.08954624 5.0106062 18.23412456 7.06201172 27.51196289 C8.66661377 34.70669166 10.48041217 41.82645988 12.47631836 48.92260742 C13.51304894 52.69888079 14.27210038 56.07398022 14 60 C0.63777712 58.71969891 -10.32369443 52.87085301 -21 45 C-21.83144531 44.50371094 -22.66289062 44.00742188 -23.51953125 43.49609375 C-26.03428342 41.80931602 -27.44278928 40.61009751 -29 38 C-30.70319132 27.97246108 -29.31281785 19.26902966 -23.52734375 10.859375 C-17.4649105 3.12009852 -9.84262886 -0.91135452 0 0 Z " fill="#CFE8F5" transform="translate(41,162)"/>
<path d="M0 0 C7.6227644 -0.37160976 12.70355375 1.82796447 19 6 C25.8996943 12.69676211 28.46677128 19.91086402 28.6875 29.375 C28.71425462 33.63351874 28.65920987 36.89524376 26.4453125 40.60546875 C24.09912813 42.75828628 21.7254663 44.35407684 19 46 C18.04480469 46.67160156 17.08960937 47.34320313 16.10546875 48.03515625 C8.34968859 53.25445485 -3.36385829 60 -13 60 C-12.33366833 53.39155767 -10.91820029 47.12608326 -9.3125 40.6875 C-6.00017918 27.17017353 -2.97504975 13.59498888 0 0 Z " fill="#CFE8F5" transform="translate(97,162)"/>
<path d="M0 0 C3.98066095 1.57724302 5.60667274 2.41000911 8 6 C9.25711618 13.01646237 7.18848674 19.78292113 4 26 C0.25627936 31.12747561 -4.82835699 35.28904946 -11 37 C-20.35496038 38.0316247 -28.12180262 37.15632479 -35.6875 31.4375 C-40.71213277 26.73555007 -43.71044608 21.35956795 -44.3046875 14.46484375 C-44.31159109 11.29264601 -44.22314382 8.16368355 -44 5 C-43.00097656 5.31839844 -42.00195312 5.63679688 -40.97265625 5.96484375 C-31.37117872 8.68160628 -22.13077905 8.32458582 -13.4375 3.5 C-11.82681641 2.52546875 -11.82681641 2.52546875 -10.18359375 1.53125 C-6.47562061 -0.25221684 -4.06845532 -0.37029676 0 0 Z " fill="#333333" transform="translate(88,109)"/>
<path d="M0 0 C8.25 0 16.5 0 25 0 C25 12.54 25 25.08 25 38 C21.37 38 17.74 38 14 38 C13.34 41.63 12.68 45.26 12 49 C6.25284947 44.42840299 6.25284947 44.42840299 4.4921875 41.4453125 C0.77996652 37.80291386 -2.55732091 38.27098225 -7.578125 38.29296875 C-8.96798615 38.27028679 -8.96798615 38.27028679 -10.38592529 38.24714661 C-13.3408633 38.20421196 -16.29478093 38.19542606 -19.25 38.1875 C-21.25523557 38.16436018 -23.26044679 38.13899592 -25.265625 38.11132812 C-30.17717376 38.0484187 -35.08808381 38.01612849 -40 38 C-40 36.35 -40 34.7 -40 33 C-38.44104004 32.98598145 -38.44104004 32.98598145 -36.85058594 32.97167969 C-32.98866162 32.93175877 -29.1275322 32.86599522 -25.26611328 32.79248047 C-23.59596989 32.76428282 -21.92569335 32.74306221 -20.25537109 32.72900391 C-17.85184628 32.70755663 -15.44992017 32.66090155 -13.046875 32.609375 C-11.9294693 32.60753204 -11.9294693 32.60753204 -10.78948975 32.60565186 C-7.46773596 32.51213649 -5.33071477 32.21881682 -2.53515625 30.36914062 C-0.52806385 27.27168124 -0.45752528 25.16389037 -0.390625 21.484375 C-0.35839844 20.23398437 -0.32617188 18.98359375 -0.29296875 17.6953125 C-0.27878906 16.39335938 -0.26460937 15.09140625 -0.25 13.75 C-0.22035156 12.43257812 -0.19070312 11.11515625 -0.16015625 9.7578125 C-0.08945464 6.50553866 -0.0424643 3.25276508 0 0 Z " fill="#373838" transform="translate(94,32)"/>
<path d="M0 0 C3.3 0 6.6 0 10 0 C11.98686827 3.33793869 13.03920425 5.32045959 12.8125 9.25 C12 12 12 12 10 14 C10.10093196 15.98189345 10.10093196 15.98189345 10.4375 18.1875 C10.55110722 21.53079825 10.34358345 22.6166919 8.07421875 25.1484375 C1.86619898 30 1.86619898 30 -1 30 C-0.89300781 28.89140625 -0.78601563 27.7828125 -0.67578125 26.640625 C-0.55382541 25.17715492 -0.43277927 23.71360883 -0.3125 22.25 C-0.23966797 21.52039063 -0.16683594 20.79078125 -0.09179688 20.0390625 C0.26399206 15.62164192 0.26399206 15.62164192 -1.4921875 11.671875 C-1.98976562 11.12015625 -2.48734375 10.5684375 -3 10 C-2.74788585 5.96617355 -1.83431614 3.66863229 0 0 Z " fill="#CBE4F0" transform="translate(65,162)"/>
<path d="M0 0 C2.66459392 2.66459392 3.10832896 4.63920125 3.51171875 8.3359375 C2.4211204 14.01370904 -2.91892193 18.16278248 -7 22 C-8.13199353 21.0919838 -9.25532363 20.17316174 -10.375 19.25 C-11.00148438 18.73953125 -11.62796875 18.2290625 -12.2734375 17.703125 C-14 16 -14 16 -16 12 C-10.72 8.04 -5.44 4.08 0 0 Z " fill="#CDE6F2" transform="translate(78,203)"/>
<path d="M0 0 C0.99 0.33 1.98 0.66 3 1 C3.87197607 7.86401679 3.87197607 7.86401679 1.64208984 10.76904297 C-0.27050095 12.45456819 -2.23739492 13.95691538 -4.3125 15.4375 C-5.34793945 16.22930664 -5.34793945 16.22930664 -6.40429688 17.03710938 C-9.28356732 19.20421244 -11.55536945 20.85178982 -15 22 C-15.04140136 17.18088136 -14.91766184 12.27102715 -11.67773438 8.43408203 C-8.12379786 5.11772552 -4.26605251 2.32051519 0 0 Z " fill="#CAE3EF" transform="translate(74,190)"/>
<path d="M0 0 C10.56 0 21.12 0 32 0 C32 1.32 32 2.64 32 4 C21.44 4 10.88 4 0 4 C0 2.68 0 1.36 0 0 Z " fill="none" transform="translate(41,38)"/>
<path d="M0 0 C10.23 0 20.46 0 31 0 C31.495 1.98 31.495 1.98 32 4 C21.11 4 10.22 4 -1 4 C-0.67 2.68 -0.34 1.36 0 0 Z " fill="#BDD4E0" transform="translate(41,29)"/>
<path d="M0 0 C5.61 0 11.22 0 17 0 C17 1.32 17 2.64 17 4 C11.39 4 5.78 4 0 4 C0 2.68 0 1.36 0 0 Z " fill="#C5DDE9" transform="translate(56,47)"/>
<path d="M0 0 C4.29 0 8.58 0 13 0 C13 1.32 13 2.64 13 4 C8.71 4 4.42 4 0 4 C0 2.68 0 1.36 0 0 Z " fill="#3D3F40" transform="translate(101,185)"/>
</svg>
